<?xml version="1.0" standalone="no"?>
<svg xmlns="http://www.w3.org/2000/svg" width="24" height="24">
    <rect width="24" height="24" opacity="0"></rect>
    <g>
        <path d="M16.51 9.05L16.51 6.05Q16.51 4.82 15.9 3.79Q15.29 2.76 14.26 2.16Q13.22 1.56 12 1.56Q10.78 1.56 9.74 2.16Q8.71 2.76 8.11 3.79Q7.51 4.82 7.51 6.05L7.51 9.05L6.29 9.05Q5.52 9.05 4.88 9.42Q4.25 9.79 3.88 10.43Q3.5 11.06 3.5 11.81L3.5 19.66Q3.5 20.42 3.88 21.06Q4.25 21.7 4.88 22.07Q5.52 22.44 6.29 22.44L17.71 22.44Q18.46 22.44 19.1 22.07Q19.75 21.7 20.12 21.05Q20.5 20.4 20.5 19.66L20.5 11.81Q20.5 11.06 20.12 10.43Q19.75 9.79 19.12 9.42Q18.48 9.05 17.71 9.05ZM9 6.05Q9 5.23 9.41 4.55Q9.82 3.86 10.5 3.46Q11.18 3.05 12 3.05Q12.82 3.05 13.5 3.46Q14.18 3.86 14.59 4.55Q15 5.23 15 6.05L15 9.05L9 9.05L9 6.05ZM19.01 19.66Q19.01 20.18 18.62 20.57Q18.24 20.95 17.71 20.95L6.29 20.95Q5.76 20.95 5.38 20.57Q4.99 20.18 4.99 19.66L4.99 11.81Q4.99 11.28 5.38 10.91Q5.76 10.54 6.29 10.54L7.51 10.54L16.51 10.54L17.71 10.54Q18.24 10.54 18.62 10.91Q19.01 11.28 19.01 11.81L19.01 19.66ZM12 13.9Q11.26 13.9 10.7 14.44Q10.15 14.98 10.15 15.74Q10.15 16.49 10.7 17.04Q11.26 17.59 12 17.59Q12.77 17.59 13.31 17.04Q13.85 16.49 13.85 15.74Q13.85 14.98 13.31 14.44Q12.77 13.9 12 13.9Z"
              fill="rgba(0,0,0,0.9019607843137255)"></path>
    </g>
</svg>