<?xml version="1.0" standalone="no"?>
<svg xmlns="http://www.w3.org/2000/svg" width="24" height="24">
    <rect width="24" height="24" opacity="0"></rect>
    <g>
        <path d="M10.75 9.05L10.75 6.05Q10.75 4.82 10.15 3.79Q9.55 2.76 8.52 2.16Q7.49 1.56 6.26 1.56Q5.04 1.56 4.01 2.16Q2.98 2.76 2.36 3.79Q1.75 4.82 1.75 6.05L1.75 8.11Q1.75 8.42 1.98 8.64Q2.21 8.86 2.52 8.86Q2.81 8.86 3.04 8.64Q3.26 8.42 3.26 8.11L3.26 6.05Q3.26 5.23 3.67 4.55Q4.08 3.86 4.76 3.46Q5.45 3.05 6.26 3.05Q7.08 3.05 7.76 3.46Q8.45 3.86 8.86 4.55Q9.26 5.23 9.26 6.05L9.26 9.05L8.02 9.05Q7.25 9.05 6.61 9.42Q5.98 9.79 5.6 10.43Q5.23 11.06 5.23 11.81L5.23 19.66Q5.23 20.4 5.6 21.05Q5.98 21.7 6.62 22.07Q7.27 22.44 8.02 22.44L19.44 22.44Q20.21 22.44 20.86 22.07Q21.5 21.7 21.88 21.06Q22.25 20.42 22.25 19.66L22.25 11.81Q22.25 11.06 21.88 10.43Q21.5 9.79 20.86 9.42Q20.21 9.05 19.44 9.05ZM20.74 19.66Q20.74 20.18 20.35 20.57Q19.97 20.95 19.44 20.95L8.02 20.95Q7.49 20.95 7.1 20.57Q6.72 20.18 6.72 19.66L6.72 11.81Q6.72 11.28 7.1 10.91Q7.49 10.54 8.02 10.54L19.46 10.54Q19.99 10.54 20.38 10.91Q20.76 11.28 20.76 11.81L20.74 19.66ZM13.75 13.9Q12.98 13.9 12.44 14.44Q11.9 14.98 11.9 15.74Q11.9 16.51 12.44 17.05Q12.98 17.59 13.75 17.59Q14.5 17.59 15.04 17.05Q15.58 16.51 15.58 15.74Q15.58 14.98 15.04 14.44Q14.5 13.9 13.75 13.9Z"
              fill="rgba(0,0,0,0.9019607843137255)"></path>
    </g>
</svg>